<?xml version="1.0" standalone="no"?>
<!DOCTYPE svg PUBLIC "-//W3C//DTD SVG 20010904//EN"
 "http://www.w3.org/TR/2001/REC-SVG-20010904/DTD/svg10.dtd">
<svg version="1.0" xmlns="http://www.w3.org/2000/svg"
 width="200.000000pt" height="200.000000pt" viewBox="0 0 200.000000 200.000000"
 preserveAspectRatio="xMidYMid meet">

<g transform="translate(0.000000,200.000000) scale(0.100000,-0.100000)"
fill="#000000" stroke="none">
<path d="M783 1697 c-117 -62 -212 -114 -213 -117 0 -3 37 -25 82 -49 l82 -44
15 24 c34 50 61 76 113 104 47 27 63 30 138 30 76 0 91 -3 140 -31 32 -18 70
-50 89 -77 29 -38 38 -44 53 -36 17 9 18 2 18 -121 l0 -132 29 -29 c35 -35 71
-39 71 -8 0 12 -11 30 -25 41 -24 19 -25 22 -25 153 l0 134 41 24 40 24 -43
25 c-43 26 -386 198 -390 197 -2 0 -98 -50 -215 -112z"/>
<path d="M892 1574 c-234 -117 -153 -468 108 -468 166 0 283 156 236 316 -31
106 -127 178 -236 178 -40 0 -71 -7 -108 -26z"/>
<path d="M679 1017 c-36 -20 -71 -62 -217 -263 -241 -332 -252 -350 -252 -391
0 -45 33 -105 70 -126 22 -13 54 -17 149 -17 l121 0 0 -30 c0 -19 7 -33 19
-40 13 -6 169 -10 440 -10 457 0 451 -1 451 56 l0 24 118 0 c98 0 122 3 149
20 63 38 84 111 50 175 -14 28 -333 476 -393 554 -52 66 -76 71 -385 71 -269
0 -277 -1 -320 -23z m752 -217 c18 -10 19 -24 19 -295 l0 -285 -450 0 -450 0
0 285 c0 260 1 285 18 294 24 14 836 15 863 1z"/>
<path d="M946 579 c-38 -30 -49 -64 -36 -105 27 -82 137 -87 175 -8 20 42 11
77 -27 109 -36 31 -76 32 -112 4z"/>
</g>
</svg>
