<?xml version="1.0" standalone="no"?>
<!DOCTYPE svg PUBLIC "-//W3C//DTD SVG 20010904//EN"
 "http://www.w3.org/TR/2001/REC-SVG-20010904/DTD/svg10.dtd">
<svg version="1.0" xmlns="http://www.w3.org/2000/svg"
 width="512.000000pt" height="512.000000pt" viewBox="0 0 512.000000 512.000000"
 preserveAspectRatio="xMidYMid meet">

<g transform="translate(0.000000,512.000000) scale(0.100000,-0.100000)"
fill="#000000" stroke="none">
<path d="M1380 4953 c-471 -50 -892 -350 -1090 -776 -289 -622 -78 -1350 498
-1722 78 -50 207 -113 282 -138 l45 -15 5 -953 5 -954 27 -51 c40 -76 70 -107
140 -145 l63 -34 1285 0 1285 0 51 27 c74 39 108 71 140 132 l28 54 78 -73
c89 -84 158 -122 252 -138 277 -47 526 202 479 479 -23 133 -34 146 -429 544
l-364 365 -2 975 -3 975 -24 50 c-35 72 -744 781 -816 816 -49 24 -56 24 -372
27 l-322 3 -67 80 c-79 94 -221 215 -331 282 -247 149 -563 220 -843 190z
m400 -182 c462 -105 816 -465 916 -931 23 -106 26 -352 5 -455 -98 -495 -471
-868 -966 -966 -103 -21 -349 -18 -455 5 -472 101 -834 463 -936 936 -23 106
-26 352 -5 455 48 245 161 457 335 631 177 177 404 296 636 334 41 6 82 13 90
15 42 11 302 -6 380 -24z m1420 -827 c0 -204 4 -310 12 -338 16 -55 99 -138
154 -154 24 -7 100 -12 178 -12 l136 0 0 80 0 80 -135 0 c-131 0 -137 1 -160
25 l-25 24 0 238 0 238 306 -305 c168 -168 312 -319 320 -337 12 -27 14 -178
14 -900 l0 -868 -422 420 -423 420 103 3 102 3 0 79 0 80 -283 0 -283 0 -68
69 -68 68 25 39 c13 22 36 63 51 92 l26 52 140 0 140 0 0 80 0 80 -111 0
c-102 0 -111 1 -104 18 3 9 16 60 28 112 28 129 30 395 4 519 -24 113 -62 231
-102 319 l-34 72 240 0 239 0 0 -296z m-585 -1274 l50 -50 -83 -83 -82 -82
-51 51 -51 51 79 81 c43 44 80 81 83 81 3 1 28 -22 55 -49z m451 -131 l-28
-22 -21 22 -21 21 48 0 49 0 -27 -21z m-201 -79 l60 -60 -103 -103 -102 -102
-62 63 -63 62 100 100 c55 55 102 100 105 100 3 0 32 -27 65 -60z m-533 -67
c38 -37 68 -76 68 -87 0 -11 44 -63 101 -122 l101 -103 -21 -27 c-27 -34 -27
-74 0 -108 l20 -26 -100 0 -101 0 0 -80 0 -80 183 0 182 0 160 -160 160 -160
-63 0 -62 0 0 -80 0 -80 143 0 142 0 160 -160 160 -160 -143 0 -142 0 0 -80 0
-80 223 0 222 0 139 -139 139 -139 -5 -52 c-5 -54 -26 -90 -72 -124 -27 -21
-31 -21 -1285 -21 l-1258 0 -37 29 c-70 53 -66 -1 -66 1002 l0 906 28 -6 c65
-14 263 -18 359 -7 180 21 374 83 513 165 41 24 77 44 80 45 2 1 35 -29 72
-66z m1533 -773 l740 -740 -183 -182 -182 -183 -742 742 -743 743 180 180 c99
99 182 180 185 180 3 0 338 -333 745 -740z m893 -900 c46 -69 54 -178 17 -251
-24 -47 -73 -97 -120 -122 -57 -30 -173 -30 -231 0 -83 44 -87 35 112 234 98
98 183 178 189 176 5 -2 20 -18 33 -37z"/>
<path d="M1400 4634 c-359 -53 -649 -255 -803 -559 -155 -308 -155 -640 -2
-945 51 -103 86 -151 174 -243 93 -97 172 -157 276 -210 308 -155 646 -155
946 -1 113 58 167 98 257 186 149 147 239 312 294 538 17 71 17 316 0 395 -69
322 -268 586 -549 729 -98 50 -201 84 -308 101 -82 14 -223 18 -285 9z m335
-182 c140 -38 251 -96 359 -186 49 -40 156 -163 156 -178 0 -4 -255 -9 -567
-10 l-568 -3 -51 -27 c-76 -40 -107 -70 -145 -140 l-34 -63 -3 -425 -3 -424
-25 29 c-296 350 -280 860 36 1185 128 132 293 222 467 255 102 19 283 13 378
-13z m616 -559 c24 -64 40 -155 46 -260 l6 -113 -242 0 -241 0 0 -80 0 -80
224 -2 225 -3 -30 -73 c-16 -41 -41 -94 -55 -118 l-26 -44 -489 0 -489 0 0
-80 0 -80 422 -2 423 -3 -70 -52 c-91 -69 -208 -126 -315 -155 -70 -19 -109
-22 -225 -22 -166 1 -250 20 -384 87 l-86 43 -3 454 c-1 250 0 469 3 487 7 40
49 91 90 109 24 10 152 13 618 14 l587 0 11 -27z"/>
<path d="M1280 3440 l0 -80 240 0 240 0 0 80 0 80 -240 0 -240 0 0 -80z"/>
<path d="M3200 3120 l0 -80 240 0 240 0 0 80 0 80 -240 0 -240 0 0 -80z"/>
<path d="M3520 2640 l0 -80 80 0 80 0 0 80 0 80 -80 0 -80 0 0 -80z"/>
<path d="M1600 1840 l0 -80 320 0 320 0 0 80 0 80 -320 0 -320 0 0 -80z"/>
<path d="M1600 1360 l0 -80 120 0 120 0 0 80 0 80 -120 0 -120 0 0 -80z"/>
<path d="M2000 1360 l0 -80 400 0 400 0 0 80 0 80 -400 0 -400 0 0 -80z"/>
<path d="M1600 880 l0 -80 400 0 400 0 0 80 0 80 -400 0 -400 0 0 -80z"/>
<path d="M2560 880 l0 -80 280 0 280 0 0 80 0 80 -280 0 -280 0 0 -80z"/>
</g>
</svg>
